# xmcd CD database file
#
# Track frame offsets:
#	150
#	38877
#	61702
#	80907
#	113157
#	150930
#	167142
#
# Disc length: 2578 seconds
#
# Revision: 1
# Processed by: cddbd v1.5.1PL2 Copyright (c) Steve Scherf et al.
# Submitted via: CDex 1.51
#
DISCID=4d0a1007
DTITLE=Tony Lujan - Magic Circle
DYEAR=1990
DGENRE=Jazz
TTITLE0=Raw Silk
TTITLE1=Saul's Silk
TTITLE2=Magic Circle
TTITLE3=Space Bass
TTITLE4=A little Amber
TTITLE5=Excess Baggage
TTITLE6=La Bruja
EXTD=YEAR: 1990
EXTT0=
EXTT1=
EXTT2=
EXTT3=
EXTT4=
EXTT5=
EXTT6=
PLAYORDER=
